<svg width="656" height="210" viewBox="0 0 656 210" fill="none" xmlns="http://www.w3.org/2000/svg">
<path d="M203.708 104.841C203.708 170.29 162.385 209.989 101.854 209.989C41.323 209.989 0 170.29 0 104.841C0 39.392 41.034 -0.000183105 101.854 -0.000183105C162.674 -0.000183105 203.708 39.085 203.708 104.841ZM57.2674 104.551C57.2674 134.769 74.0958 153.715 101.548 153.715C129 153.715 146.118 134.752 146.118 104.551C146.118 74.3504 126.927 56.2744 101.548 56.2744C76.1696 56.2744 57.2674 75.2372 57.2674 104.551Z" fill="#E84420"/>
<path d="M270.699 205.828H216.678V-0.000183105H270.699V205.828Z" fill="#E84420"/>
<path d="M338.284 107.211V205.828H283.668V57.1611H327.354L332.369 77.5905C345.661 63.9652 360.416 53.597 377.533 53.597C390.826 53.597 406.175 58.9346 413.842 77.5905C427.134 63.6753 441.6 53.597 458.717 53.597C477.313 53.597 499.751 64.2551 499.751 106.018V205.828H445.136V122.013C445.136 109.582 441.294 103.647 432.149 103.647C427.423 103.647 422.409 105.728 418.567 107.791V205.828H363.952V122.013C363.952 109.582 360.11 103.647 350.965 103.647C346.545 103.647 342.109 105.421 338.267 107.194L338.284 107.211Z" fill="#E84420"/>
<path d="M538.491 53.597L531.929 22.7995L632.304 -0.000183105L640.447 36.0837L538.491 53.597Z" fill="#E84420"/>
<path d="M656 120.547C656 77.3006 635.636 54.211 588.687 54.211C541.737 54.211 511.038 82.9451 511.038 132.398C511.038 181.852 540.564 209.989 590.743 209.989C613.776 210.279 636.503 204.652 651.852 197.251V150.389C636.503 158.387 615.238 164.015 597.237 164.015C586.545 164.015 578.25 158.302 572.47 153.715L655.065 138.998H655.099C655.983 132.194 655.983 126.788 655.983 120.564L656 120.547ZM584.692 99.3159C596.676 97.5765 606.569 102.13 609.9 116.914L565.484 125.441C565.382 110.196 571.246 101.26 584.692 99.3159Z" fill="#E84420"/>
</svg>
