<svg width="311" height="57" viewBox="0 0 311 57" fill="none" xmlns="http://www.w3.org/2000/svg">
<path d="M0 20C0 8.9543 8.95431 0 20 0H223.2C227.301 0 231.302 1.26047 234.663 3.61064L311 57H0V20Z" fill="#41BEDF"/>
<g
     aria-label="Infos, réservations"
     id="text2"
     style="font-weight:700;font-size:14px;font-family:Inter;fill:#0d392a">
    <path
       d="m 115.25365,26.818182 h -2.1527 V 37 h 2.1527 z"
       id="path10" />
    <path
       d="m 119.10664,32.585227 c 0.005,-0.984375 0.59162,-1.561079 1.44673,-1.561079 0.85014,0 1.36222,0.556818 1.35725,1.491477 V 37 h 2.11789 v -4.862216 c 0,-1.779829 -1.04403,-2.873579 -2.63494,-2.873579 -1.13352,0 -1.95384,0.556818 -2.29688,1.446732 h -0.0895 v -1.347301 h -2.01847 V 37 h 2.1179 z"
       id="path12" />
    <path
       d="m 129.80052,29.363636 h -1.51633 v -0.512074 c 0,-0.517045 0.2088,-0.820312 0.83025,-0.820312 0.25355,0 0.51207,0.05469 0.68111,0.109375 l 0.37287,-1.590909 c -0.2635,-0.07955 -0.84517,-0.208807 -1.49645,-0.208807 -1.43679,0 -2.50568,0.810369 -2.50568,2.470881 v 0.551846 h -1.07884 v 1.590909 h 1.07884 V 37 h 2.1179 v -6.045455 h 1.51633 z"
       id="path14" />
    <path
       d="m 134.27494,37.149148 c 2.31676,0 3.75852,-1.585938 3.75852,-3.9375 0,-2.366478 -1.44176,-3.947443 -3.75852,-3.947443 -2.31677,0 -3.75853,1.580965 -3.75853,3.947443 0,2.351562 1.44176,3.9375 3.75853,3.9375 z m 0.01,-1.640625 c -1.06889,0 -1.61577,-0.979404 -1.61577,-2.31179 0,-1.332386 0.54688,-2.316761 1.61577,-2.316761 1.049,0 1.59588,0.984375 1.59588,2.316761 0,1.332386 -0.54688,2.31179 -1.59588,2.31179 z"
       id="path16" />
    <path
       d="m 145.76925,31.541193 c -0.18892,-1.40696 -1.32244,-2.276988 -3.25142,-2.276988 -1.95384,0 -3.24148,0.904829 -3.23651,2.37642 -0.005,1.143466 0.71591,1.884233 2.20739,2.182528 l 1.32244,0.263495 c 0.6662,0.134233 0.96946,0.377841 0.97941,0.760653 -0.01,0.452415 -0.50214,0.775568 -1.2429,0.775568 -0.75568,0 -1.25781,-0.323153 -1.38708,-0.944602 l -2.08309,0.109375 c 0.19886,1.461648 1.44176,2.361506 3.4652,2.361506 1.97869,0 3.39559,-1.009233 3.40056,-2.515625 -0.005,-1.103693 -0.72585,-1.764915 -2.20738,-2.068182 l -1.3821,-0.278409 c -0.71094,-0.15412 -0.97444,-0.397727 -0.96946,-0.765625 -0.005,-0.457387 0.51207,-0.755682 1.16832,-0.755682 0.73579,0 1.17329,0.402699 1.2777,0.894886 z"
       id="path18" />
    <path
       d="m 149.58247,35.607955 h -1.75 l -0.0249,0.556818 c -0.0597,1.352272 -0.44744,2.739346 -0.59162,3.321022 h 1.37216 c 0.23864,-0.601562 0.8054,-2.013494 0.93963,-3.330965 z"
       id="path20" />
    <path
       d="m 154.29058,37 h 2.1179 v -4.320313 c 0,-0.93963 0.68608,-1.585937 1.62074,-1.585937 0.29332,0 0.69602,0.04972 0.89488,0.114347 v -1.879262 c -0.18892,-0.04474 -0.45241,-0.07457 -0.66619,-0.07457 -0.85511,0 -1.55611,0.497159 -1.83452,1.441762 h -0.0795 v -1.332387 h -2.05327 z"
       id="path22" />
    <path
       d="m 163.13504,37.149148 c 1.8892,0 3.16193,-0.919745 3.46022,-2.336648 l -1.9588,-0.129261 c -0.21378,0.581676 -0.76066,0.884943 -1.46662,0.884943 -1.05895,0 -1.73011,-0.700995 -1.73011,-1.839489 v -0.005 h 5.20028 v -0.581677 c 0,-2.59517 -1.57102,-3.87784 -3.58949,-3.87784 -2.24716,0 -3.70383,1.59588 -3.70383,3.952414 0,2.421165 1.43679,3.932529 3.78835,3.932529 z m -1.69531,-4.737926 c 0.0447,-0.870029 0.70596,-1.566052 1.64559,-1.566052 0.91975,0 1.55611,0.65625 1.56108,1.566052 z m 0.80042,-4.031961 h 1.49645 l 1.51634,-2.262074 h -1.95881 z"
       id="path24" />
    <path
       d="m 174.3758,31.541193 c -0.18892,-1.40696 -1.32244,-2.276988 -3.25142,-2.276988 -1.95383,0 -3.24147,0.904829 -3.2365,2.37642 -0.005,1.143466 0.71591,1.884233 2.20738,2.182528 l 1.32245,0.263495 c 0.66619,0.134233 0.96946,0.377841 0.9794,0.760653 -0.01,0.452415 -0.50213,0.775568 -1.2429,0.775568 -0.75568,0 -1.25781,-0.323153 -1.38707,-0.944602 l -2.0831,0.109375 c 0.19887,1.461648 1.44176,2.361506 3.4652,2.361506 1.9787,0 3.3956,-1.009233 3.40057,-2.515625 -0.005,-1.103693 -0.72585,-1.764915 -2.20739,-2.068182 l -1.3821,-0.278409 c -0.71094,-0.15412 -0.97443,-0.397727 -0.96946,-0.765625 -0.005,-0.457387 0.51208,-0.755682 1.16833,-0.755682 0.73579,0 1.17329,0.402699 1.27769,0.894886 z"
       id="path26" />
    <path
       d="m 179.36729,37.149148 c 1.88921,0 3.16193,-0.919745 3.46023,-2.336648 l -1.95881,-0.129261 c -0.21378,0.581676 -0.76065,0.884943 -1.46662,0.884943 -1.05895,0 -1.73011,-0.700995 -1.73011,-1.839489 v -0.005 h 5.20028 v -0.581677 c 0,-2.59517 -1.57102,-3.87784 -3.58949,-3.87784 -2.24715,0 -3.70383,1.59588 -3.70383,3.952414 0,2.421165 1.43679,3.932529 3.78835,3.932529 z m -1.69531,-4.737926 c 0.0447,-0.870029 0.70596,-1.566052 1.6456,-1.566052 0.91974,0 1.5561,0.65625 1.56108,1.566052 z"
       id="path28" />
    <path
       d="m 184.25437,37 h 2.11789 v -4.320313 c 0,-0.93963 0.68608,-1.585937 1.62074,-1.585937 0.29333,0 0.69602,0.04972 0.89489,0.114347 v -1.879262 c -0.18892,-0.04474 -0.45242,-0.07457 -0.6662,-0.07457 -0.85511,0 -1.5561,0.497159 -1.83451,1.441762 h -0.0796 v -1.332387 h -2.05326 z"
       id="path30" />
    <path
       d="m 197.33462,29.363636 h -2.24219 l -1.58096,5.463779 h -0.0796 l -1.58594,-5.463779 h -2.23721 L 192.27851,37 h 2.38637 z"
       id="path32" />
    <path
       d="m 200.3822,37.144176 c 1.12855,0 1.85938,-0.492187 2.23225,-1.203125 h 0.0597 V 37 h 2.00853 v -5.150568 c 0,-1.819602 -1.5412,-2.585227 -3.24148,-2.585227 -1.82955,0 -3.03267,0.875 -3.32599,2.267045 l 1.9588,0.159091 c 0.14418,-0.507102 0.59659,-0.879972 1.35725,-0.879972 0.72088,0 1.13352,0.362926 1.13352,0.989347 v 0.02983 c 0,0.492188 -0.52202,0.556819 -1.84943,0.68608 -1.51137,0.139205 -2.86861,0.646307 -2.86861,2.351562 0,1.511364 1.07884,2.276989 2.53551,2.276989 z m 0.60654,-1.461648 c -0.65128,0 -1.11861,-0.303267 -1.11861,-0.884943 0,-0.596591 0.49219,-0.889915 1.23792,-0.994318 0.46236,-0.06463 1.21804,-0.174006 1.47159,-0.34304 v 0.81037 c 0,0.800426 -0.66122,1.411931 -1.5909,1.411931 z"
       id="path34" />
    <path
       d="m 210.39001,29.363636 h -1.43679 v -1.829545 h -2.1179 v 1.829545 h -1.04403 v 1.590909 h 1.04403 v 3.977273 c -0.01,1.496449 1.00923,2.237216 2.54545,2.172585 0.54688,-0.01989 0.93466,-0.129261 1.14844,-0.198863 l -0.33309,-1.575995 c -0.10441,0.01989 -0.32813,0.0696 -0.52699,0.0696 -0.42259,0 -0.71591,-0.159091 -0.71591,-0.745739 v -3.698864 h 1.43679 z"
       id="path36" />
    <path
       d="m 211.76714,37 h 2.1179 v -7.636364 h -2.1179 z m 1.06393,-8.620739 c 0.63139,0 1.14843,-0.482244 1.14843,-1.073863 0,-0.586648 -0.51704,-1.068892 -1.14843,-1.068892 -0.62643,0 -1.14347,0.482244 -1.14347,1.068892 0,0.591619 0.51704,1.073863 1.14347,1.073863 z"
       id="path38" />
    <path
       d="m 219.02566,37.149148 c 2.31677,0 3.75853,-1.585938 3.75853,-3.9375 0,-2.366478 -1.44176,-3.947443 -3.75853,-3.947443 -2.31676,0 -3.75852,1.580965 -3.75852,3.947443 0,2.351562 1.44176,3.9375 3.75852,3.9375 z m 0.01,-1.640625 c -1.06889,0 -1.61577,-0.979404 -1.61577,-2.31179 0,-1.332386 0.54688,-2.316761 1.61577,-2.316761 1.049,0 1.59588,0.984375 1.59588,2.316761 0,1.332386 -0.54688,2.31179 -1.59588,2.31179 z"
       id="path40" />
    <path
       d="m 226.28417,32.585227 c 0.005,-0.984375 0.59162,-1.561079 1.44674,-1.561079 0.85014,0 1.36221,0.556818 1.35724,1.491477 V 37 h 2.1179 v -4.862216 c 0,-1.779829 -1.04403,-2.873579 -2.63494,-2.873579 -1.13353,0 -1.95384,0.556818 -2.29688,1.446732 h -0.0895 v -1.347301 h -2.01846 V 37 h 2.11789 z"
       id="path42" />
    <path
       d="m 239.22522,31.541193 c -0.18892,-1.40696 -1.32245,-2.276988 -3.25142,-2.276988 -1.95384,0 -3.24148,0.904829 -3.23651,2.37642 -0.005,1.143466 0.71591,1.884233 2.20739,2.182528 l 1.32244,0.263495 c 0.66619,0.134233 0.96946,0.377841 0.9794,0.760653 -0.01,0.452415 -0.50213,0.775568 -1.2429,0.775568 -0.75568,0 -1.25781,-0.323153 -1.38707,-0.944602 l -2.0831,0.109375 c 0.19887,1.461648 1.44177,2.361506 3.4652,2.361506 1.9787,0 3.3956,-1.009233 3.40057,-2.515625 -0.005,-1.103693 -0.72585,-1.764915 -2.20739,-2.068182 l -1.3821,-0.278409 c -0.71093,-0.15412 -0.97443,-0.397727 -0.96946,-0.765625 -0.005,-0.457387 0.51208,-0.755682 1.16833,-0.755682 0.73579,0 1.17329,0.402699 1.2777,0.894886 z"
       id="path44" />
  </g>
<path d="M26.776 40.288C22.696 40.288 19.84 36.688 19.84 31.6C19.84 26.512 22.696 22.912 26.752 22.912C30.832 22.912 33.712 26.512 33.712 31.6C33.712 36.688 30.832 40.288 26.776 40.288ZM26.776 37.312C28.96 37.312 30.52 34.96 30.52 31.6C30.52 28.24 28.936 25.864 26.752 25.864C24.592 25.864 23.056 28.24 23.056 31.6C23.056 34.96 24.592 37.312 26.776 37.312ZM43.0105 40V36.688H35.1865V34.072L42.6265 23.2H46.1065V33.88H49.0345V36.688H46.1065V40H43.0105ZM38.5705 33.88H43.0105V27.376L38.5705 33.88Z" fill="#0D392A"/>
</svg>
