<svg width="311" height="57" viewBox="0 0 311 57" fill="none" xmlns="http://www.w3.org/2000/svg">
<path d="M0 20C0 8.9543 8.95431 0 20 0H223.2C227.301 0 231.302 1.26047 234.663 3.61064L311 57H0V20Z" fill="#E84420"/>
<path d="M147.216 37V25.8H149.6L152.864 30.632L156.128 25.8H158.496V37H156.32V29.224L152.864 34.312L149.408 29.24V37H147.216ZM161.815 27.704C161.159 27.704 160.599 27.144 160.599 26.488C160.599 25.832 161.159 25.272 161.815 25.272C162.471 25.272 163.031 25.832 163.031 26.488C163.031 27.144 162.471 27.704 161.815 27.704ZM160.759 37V29H162.871V37H160.759ZM164.066 37L167.042 32.856L164.274 29H166.77L168.21 31.144L169.634 29H172.13L169.378 32.872L172.322 37H169.81L168.21 34.584L166.594 37H164.066ZM176.875 37.192C174.427 37.192 172.683 35.464 172.683 33C172.683 30.536 174.411 28.808 176.843 28.808C179.307 28.808 181.019 30.536 181.019 33C181.019 35.464 179.307 37.192 176.875 37.192ZM176.875 35.24C178.043 35.24 178.859 34.312 178.859 33C178.859 31.688 178.027 30.76 176.843 30.76C175.675 30.76 174.843 31.688 174.843 33C174.843 34.312 175.675 35.24 176.875 35.24ZM182.412 37V25.8H184.524V37H182.412ZM190.11 37.192C187.662 37.192 185.918 35.464 185.918 33C185.918 30.536 187.646 28.808 190.078 28.808C192.542 28.808 194.253 30.536 194.253 33C194.253 35.464 192.542 37.192 190.11 37.192ZM190.11 35.24C191.278 35.24 192.094 34.312 192.094 33C192.094 31.688 191.262 30.76 190.078 30.76C188.91 30.76 188.078 31.688 188.078 33C188.078 34.312 188.91 35.24 190.11 35.24ZM199.246 40.408C197.406 40.408 196.254 39.96 195.662 39.528L196.494 37.832C196.942 38.088 197.806 38.536 199.15 38.536C200.414 38.536 201.326 37.816 201.326 36.2V35.432C200.782 36.28 199.918 36.776 198.83 36.776C196.622 36.776 195.214 35.256 195.214 32.904C195.214 30.408 196.622 28.808 198.83 28.808C199.918 28.808 200.782 29.336 201.326 30.248V29H203.438V36.136C203.438 38.856 201.838 40.408 199.246 40.408ZM199.438 35C200.526 35 201.246 34.104 201.246 32.84C201.246 31.576 200.51 30.696 199.422 30.696C198.286 30.696 197.518 31.576 197.502 32.84C197.518 34.104 198.302 35 199.438 35ZM206.44 27.704C205.784 27.704 205.224 27.144 205.224 26.488C205.224 25.832 205.784 25.272 206.44 25.272C207.096 25.272 207.656 25.832 207.656 26.488C207.656 27.144 207.096 27.704 206.44 27.704ZM205.384 37V29H207.496V37H205.384ZM213.059 37.192C210.691 37.192 209.011 35.464 209.011 33C209.011 30.536 210.739 28.808 213.171 28.808C215.267 28.808 217.075 30.52 217.075 33.56H211.219C211.315 34.632 212.259 35.304 213.283 35.304C214.163 35.304 214.691 34.888 214.995 34.296L216.883 35.032C216.195 36.392 214.947 37.192 213.059 37.192ZM211.331 31.992H214.787C214.691 31 213.795 30.6 213.107 30.6C212.419 30.6 211.443 30.968 211.331 31.992Z" fill="#F1D6A5"/>
<path d="M26.776 40.288C22.696 40.288 19.84 36.688 19.84 31.6C19.84 26.512 22.696 22.912 26.752 22.912C30.832 22.912 33.712 26.512 33.712 31.6C33.712 36.688 30.832 40.288 26.776 40.288ZM26.776 37.312C28.96 37.312 30.52 34.96 30.52 31.6C30.52 28.24 28.936 25.864 26.752 25.864C24.592 25.864 23.056 28.24 23.056 31.6C23.056 34.96 24.592 37.312 26.776 37.312ZM39.2425 40V27.328C38.1145 28.096 36.9385 28.6 35.6905 28.504V25.528C36.8665 25.624 38.5225 24.352 39.6025 23.2H42.3865V40H39.2425Z" fill="#F1D6A5"/>
</svg>
