<svg width="311" height="57" viewBox="0 0 311 57" fill="none" xmlns="http://www.w3.org/2000/svg">
<path d="M0 20C0 8.9543 8.95431 0 20 0H223.2C227.301 0 231.302 1.26047 234.663 3.61064L311 57H0V20Z" fill="#F1D6A5"/>
<path d="M145.216 37V25.8H149.008C151.312 25.8 152.848 26.872 152.848 28.984C152.848 29.864 152.384 30.616 151.6 31.144C152.64 31.672 153.232 32.552 153.232 33.8C153.232 35.848 151.76 37 149.52 37H145.216ZM147.36 30.36H149.056C150 30.36 150.608 29.848 150.608 28.952C150.608 28.056 149.936 27.544 148.88 27.544H147.36V30.36ZM147.36 35.064H149.312C150.352 35.064 150.992 34.488 150.992 33.624C150.992 32.712 150.288 32.152 149.136 32.152H147.36V35.064ZM154.709 37V29H156.821V30.472C157.477 29.464 158.565 28.968 159.653 28.968V31.016C158.181 31.016 156.821 31.544 156.821 32.792V37H154.709ZM163.619 37.192C161.715 37.192 160.627 36.072 160.627 33.528V29H162.739V33.096C162.739 34.712 163.331 35.192 164.227 35.208C165.331 35.224 165.923 34.52 165.923 33.192V29H168.035V37H166.051L165.971 35.912C165.443 36.744 164.627 37.192 163.619 37.192ZM173.161 37.192C171.385 37.192 170.473 36.296 170.473 34.664V30.792H169.177V29H170.473V26.504H172.585V29H174.585V30.792H172.585V34.2C172.585 34.904 172.873 35.24 173.465 35.24C173.673 35.24 173.929 35.144 174.217 34.952L174.953 36.536C174.425 36.92 173.769 37.192 173.161 37.192ZM180.419 37V25.8H187.603V27.8H182.611V30.488H186.771V32.488H182.611V37H180.419ZM192.61 37.192C190.162 37.192 188.418 35.464 188.418 33C188.418 30.536 190.146 28.808 192.578 28.808C195.042 28.808 196.753 30.536 196.753 33C196.753 35.464 195.042 37.192 192.61 37.192ZM192.61 35.24C193.778 35.24 194.594 34.312 194.594 33C194.594 31.688 193.762 30.76 192.578 30.76C191.41 30.76 190.578 31.688 190.578 33C190.578 34.312 191.41 35.24 192.61 35.24ZM201.906 37.192C199.458 37.192 197.714 35.464 197.714 33C197.714 30.536 199.442 28.808 201.874 28.808C204.338 28.808 206.05 30.536 206.05 33C206.05 35.464 204.338 37.192 201.906 37.192ZM201.906 35.24C203.074 35.24 203.89 34.312 203.89 33C203.89 31.688 203.058 30.76 201.874 30.76C200.706 30.76 199.874 31.688 199.874 33C199.874 34.312 200.706 35.24 201.906 35.24ZM210.627 37.192C208.419 37.192 207.011 35.56 207.011 33C207.011 30.44 208.419 28.808 210.627 28.808C211.683 28.808 212.499 29.272 213.027 30.072V25.8H215.139V37H213.139L213.075 35.88C212.531 36.712 211.699 37.192 210.627 37.192ZM211.171 35.256C212.211 35.256 212.979 34.392 213.027 33.16V32.84C212.979 31.624 212.211 30.76 211.155 30.76C210.019 30.76 209.203 31.688 209.203 33C209.203 34.312 210.035 35.256 211.171 35.256Z" fill="#0D392A"/>
<path d="M26.776 40.288C22.696 40.288 19.84 36.688 19.84 31.6C19.84 26.512 22.696 22.912 26.752 22.912C30.832 22.912 33.712 26.512 33.712 31.6C33.712 36.688 30.832 40.288 26.776 40.288ZM26.776 37.312C28.96 37.312 30.52 34.96 30.52 31.6C30.52 28.24 28.936 25.864 26.752 25.864C24.592 25.864 23.056 28.24 23.056 31.6C23.056 34.96 24.592 37.312 26.776 37.312ZM41.3065 40.288C38.3545 40.288 36.0985 38.872 35.4985 36.616L38.5225 35.728C38.8585 36.352 39.4345 37.432 41.0905 37.432C42.6985 37.432 43.7065 36.448 43.7065 35.056C43.7065 33.64 42.6985 32.632 40.0825 32.632H39.0745V29.944H40.0825C42.3385 29.944 43.3945 29.128 43.3945 27.784C43.3945 26.656 42.4585 25.768 41.0665 25.768C40.1305 25.768 39.0985 26.152 38.6185 27.424L35.6425 26.536C36.3145 24.184 38.6665 22.912 41.1625 22.912C44.2585 22.912 46.6585 24.808 46.6585 27.496C46.6585 29.248 45.5785 30.496 43.9705 31.216C45.7945 32.08 46.9945 33.544 46.9945 35.44C46.9945 38.488 44.3065 40.288 41.3065 40.288Z" fill="#0D392A"/>
</svg>
