<svg width="311" height="57" viewBox="0 0 311 57" fill="none" xmlns="http://www.w3.org/2000/svg">
<path d="M0 20C0 8.9543 8.95431 0 20 0H223.2C227.301 0 231.302 1.26047 234.663 3.61064L311 57H0V20Z" fill="#41BEDF"/>
<path d="M112.216 37V25.8H114.408V37H112.216ZM116.537 37V29H118.521L118.617 30.088C119.129 29.256 119.945 28.808 120.969 28.808C122.873 28.808 123.961 29.928 123.945 32.472V37H121.833V32.904C121.833 31.288 121.241 30.808 120.345 30.792C119.241 30.776 118.649 31.48 118.649 32.808V37H116.537ZM126.431 37V30.696H125.103V29H126.431V28.2C126.431 26.488 127.295 25.496 129.087 25.496C129.711 25.496 130.463 25.736 131.023 26.04L130.239 27.56C129.903 27.384 129.615 27.304 129.391 27.304C128.815 27.304 128.543 27.672 128.543 28.552V29H130.511V30.696H128.543V37H126.431ZM135.485 37.192C133.037 37.192 131.293 35.464 131.293 33C131.293 30.536 133.021 28.808 135.453 28.808C137.917 28.808 139.628 30.536 139.628 33C139.628 35.464 137.917 37.192 135.485 37.192ZM135.485 35.24C136.653 35.24 137.469 34.312 137.469 33C137.469 31.688 136.637 30.76 135.453 30.76C134.285 30.76 133.453 31.688 133.453 33C133.453 34.312 134.285 35.24 135.485 35.24ZM144.013 37.192C142.461 37.192 141.165 36.488 140.589 35.208L142.397 34.376C142.717 34.888 143.277 35.32 144.013 35.32C144.717 35.32 145.117 35.112 145.117 34.728C145.117 34.344 144.781 34.2 144.253 34.072L143.517 33.88C141.981 33.48 141.037 32.536 141.037 31.384C141.037 29.752 142.141 28.808 144.077 28.808C145.565 28.808 146.877 29.544 147.229 30.584L145.485 31.384C145.341 30.952 144.653 30.664 144.077 30.664C143.501 30.664 143.181 30.936 143.181 31.352C143.181 31.624 143.485 31.8 144.045 31.928L145.085 32.184C146.637 32.568 147.245 33.768 147.245 34.76C147.245 36.216 145.869 37.192 144.013 37.192ZM152.367 40.2V29H154.351L154.447 30.136C154.975 29.288 155.807 28.808 156.895 28.808C159.103 28.808 160.511 30.44 160.511 33C160.511 35.56 159.103 37.192 156.895 37.192C155.823 37.192 155.007 36.728 154.479 35.912V40.2H152.367ZM156.351 35.256C157.487 35.256 158.303 34.312 158.319 33C158.303 31.688 157.503 30.76 156.367 30.76C155.263 30.76 154.479 31.688 154.479 33C154.479 34.312 155.263 35.256 156.351 35.256ZM161.896 37V29H164.008V30.472C164.664 29.464 165.752 28.968 166.84 28.968V31.016C165.368 31.016 164.008 31.544 164.008 32.792V37H161.896ZM170.551 37.192C168.631 37.192 167.527 36.312 167.527 34.744C167.527 33.032 168.727 32.168 170.791 32.168H172.679C172.535 31.192 172.087 30.648 171.207 30.648C170.519 30.648 169.959 30.936 169.575 31.56L167.719 30.92C168.151 29.896 169.191 28.808 171.207 28.808C173.639 28.808 174.839 30.28 174.807 32.568L174.759 37H172.791L172.759 36.072C172.343 36.792 171.623 37.192 170.551 37.192ZM170.903 35.432C171.927 35.432 172.727 34.6 172.727 33.768V33.736H171.527C170.135 33.736 169.687 34.088 169.687 34.68C169.687 35.144 170.135 35.432 170.903 35.432ZM179.786 37.192C178.01 37.192 177.098 36.296 177.098 34.664V30.792H175.802V29H177.098V26.504H179.21V29H181.21V30.792H179.21V34.2C179.21 34.904 179.498 35.24 180.09 35.24C180.298 35.24 180.554 35.144 180.842 34.952L181.578 36.536C181.05 36.92 180.394 37.192 179.786 37.192ZM184.112 27.704C183.456 27.704 182.896 27.144 182.896 26.488C182.896 25.832 183.456 25.272 184.112 25.272C184.768 25.272 185.328 25.832 185.328 26.488C185.328 27.144 184.768 27.704 184.112 27.704ZM183.056 37V29H185.168V37H183.056ZM192.715 40.2V35.912C192.187 36.728 191.355 37.192 190.299 37.192C188.091 37.192 186.683 35.56 186.683 33C186.683 30.44 188.091 28.808 190.299 28.808C191.387 28.808 192.219 29.304 192.747 30.136L192.827 29H194.827V40.2H192.715ZM190.843 35.256C191.931 35.256 192.715 34.312 192.715 33C192.715 31.688 191.931 30.76 190.827 30.76C189.691 30.76 188.875 31.688 188.875 33C188.875 34.312 189.707 35.256 190.843 35.256ZM199.432 37.192C197.528 37.192 196.44 36.072 196.44 33.528V29H198.552V33.096C198.552 34.712 199.144 35.192 200.04 35.208C201.144 35.224 201.736 34.52 201.736 33.192V29H203.848V37H201.864L201.784 35.912C201.256 36.744 200.44 37.192 199.432 37.192ZM209.294 37.192C206.926 37.192 205.246 35.464 205.246 33C205.246 30.536 206.974 28.808 209.406 28.808C211.502 28.808 213.31 30.52 213.31 33.56H207.454C207.55 34.632 208.494 35.304 209.518 35.304C210.398 35.304 210.926 34.888 211.23 34.296L213.118 35.032C212.43 36.392 211.182 37.192 209.294 37.192ZM207.566 31.992H211.022C210.926 31 210.03 30.6 209.342 30.6C208.654 30.6 207.678 30.968 207.566 31.992ZM217.529 37.192C215.977 37.192 214.681 36.488 214.105 35.208L215.913 34.376C216.233 34.888 216.793 35.32 217.529 35.32C218.233 35.32 218.633 35.112 218.633 34.728C218.633 34.344 218.297 34.2 217.769 34.072L217.033 33.88C215.497 33.48 214.553 32.536 214.553 31.384C214.553 29.752 215.657 28.808 217.593 28.808C219.081 28.808 220.393 29.544 220.745 30.584L219.001 31.384C218.857 30.952 218.169 30.664 217.593 30.664C217.017 30.664 216.697 30.936 216.697 31.352C216.697 31.624 217.001 31.8 217.561 31.928L218.601 32.184C220.153 32.568 220.761 33.768 220.761 34.76C220.761 36.216 219.385 37.192 217.529 37.192Z" fill="#0D392A"/>
<path d="M26.776 40.288C22.696 40.288 19.84 36.688 19.84 31.6C19.84 26.512 22.696 22.912 26.752 22.912C30.832 22.912 33.712 26.512 33.712 31.6C33.712 36.688 30.832 40.288 26.776 40.288ZM26.776 37.312C28.96 37.312 30.52 34.96 30.52 31.6C30.52 28.24 28.936 25.864 26.752 25.864C24.592 25.864 23.056 28.24 23.056 31.6C23.056 34.96 24.592 37.312 26.776 37.312ZM43.0105 40V36.688H35.1865V34.072L42.6265 23.2H46.1065V33.88H49.0345V36.688H46.1065V40H43.0105ZM38.5705 33.88H43.0105V27.376L38.5705 33.88Z" fill="#0D392A"/>
</svg>
