<svg width="311" height="57" viewBox="0 0 311 57" fill="none" xmlns="http://www.w3.org/2000/svg">
<path d="M0 20C0 8.9543 8.95431 0 20 0H223.2C227.301 0 231.302 1.26047 234.663 3.61064L311 57H0V20Z" fill="#DE9E53"/>
<path d="M83.592 37L79.128 25.8H81.48L84.792 34.408L88.072 25.8H90.424L85.976 37H83.592ZM92.6429 27.704C91.9869 27.704 91.4269 27.144 91.4269 26.488C91.4269 25.832 91.9869 25.272 92.6429 25.272C93.2989 25.272 93.8589 25.832 93.8589 26.488C93.8589 27.144 93.2989 27.704 92.6429 27.704ZM91.5869 37V29H93.6989V37H91.5869ZM95.6464 37V29H97.6304L97.7264 30.088C98.2384 29.256 99.0544 28.808 100.078 28.808C101.982 28.808 103.07 29.928 103.054 32.472V37H100.942V32.904C100.942 31.288 100.35 30.808 99.4544 30.792C98.3504 30.776 97.7584 31.48 97.7584 32.808V37H95.6464ZM107.732 37.192C106.18 37.192 104.884 36.488 104.308 35.208L106.116 34.376C106.436 34.888 106.996 35.32 107.732 35.32C108.436 35.32 108.836 35.112 108.836 34.728C108.836 34.344 108.5 34.2 107.972 34.072L107.236 33.88C105.7 33.48 104.756 32.536 104.756 31.384C104.756 29.752 105.86 28.808 107.796 28.808C109.284 28.808 110.596 29.544 110.948 30.584L109.204 31.384C109.06 30.952 108.372 30.664 107.796 30.664C107.22 30.664 106.9 30.936 106.9 31.352C106.9 31.624 107.204 31.8 107.764 31.928L108.804 32.184C110.356 32.568 110.964 33.768 110.964 34.76C110.964 36.216 109.588 37.192 107.732 37.192ZM111.745 38.824L112.721 35.048H114.913L113.345 38.824H111.745ZM124.643 37.192C123.555 37.192 122.723 36.712 122.195 35.864L122.115 37H120.115V25.8H122.227V30.088C122.755 29.272 123.571 28.808 124.643 28.808C126.851 28.808 128.259 30.44 128.259 33C128.259 35.56 126.851 37.192 124.643 37.192ZM124.099 35.256C125.235 35.256 126.051 34.312 126.067 33C126.051 31.688 125.251 30.76 124.115 30.76C123.011 30.76 122.227 31.688 122.227 33C122.227 34.312 123.011 35.256 124.099 35.256ZM130.83 27.704C130.174 27.704 129.614 27.144 129.614 26.488C129.614 25.832 130.174 25.272 130.83 25.272C131.486 25.272 132.046 25.832 132.046 26.488C132.046 27.144 131.486 27.704 130.83 27.704ZM129.774 37V29H131.886V37H129.774ZM137.194 28.008L135.098 25.784H137.466L139.322 28.008H137.194ZM137.45 37.192C135.082 37.192 133.402 35.464 133.402 33C133.402 30.536 135.13 28.808 137.562 28.808C139.658 28.808 141.466 30.52 141.466 33.56H135.61C135.706 34.632 136.65 35.304 137.674 35.304C138.554 35.304 139.082 34.888 139.386 34.296L141.274 35.032C140.586 36.392 139.338 37.192 137.45 37.192ZM135.722 31.992H139.178C139.082 31 138.186 30.6 137.498 30.6C136.81 30.6 135.834 30.968 135.722 31.992ZM142.74 37V29H144.852V30.472C145.508 29.464 146.596 28.968 147.684 28.968V31.016C146.212 31.016 144.852 31.544 144.852 32.792V37H142.74ZM152.419 37.192C150.051 37.192 148.371 35.464 148.371 33C148.371 30.536 150.099 28.808 152.531 28.808C154.627 28.808 156.435 30.52 156.435 33.56H150.579C150.675 34.632 151.619 35.304 152.643 35.304C153.523 35.304 154.051 34.888 154.355 34.296L156.243 35.032C155.555 36.392 154.307 37.192 152.419 37.192ZM150.691 31.992H154.147C154.051 31 153.155 30.6 152.467 30.6C151.779 30.6 150.803 30.968 150.691 31.992ZM160.654 37.192C159.102 37.192 157.806 36.488 157.23 35.208L159.038 34.376C159.358 34.888 159.918 35.32 160.654 35.32C161.358 35.32 161.758 35.112 161.758 34.728C161.758 34.344 161.422 34.2 160.894 34.072L160.158 33.88C158.622 33.48 157.678 32.536 157.678 31.384C157.678 29.752 158.782 28.808 160.718 28.808C162.206 28.808 163.518 29.544 163.87 30.584L162.126 31.384C161.982 30.952 161.294 30.664 160.718 30.664C160.142 30.664 159.822 30.936 159.822 31.352C159.822 31.624 160.126 31.8 160.686 31.928L161.726 32.184C163.278 32.568 163.886 33.768 163.886 34.76C163.886 36.216 162.51 37.192 160.654 37.192ZM172.08 37.208C170.096 37.208 168.688 35.976 168.688 34.216C168.688 33.032 169.424 32.056 170.432 31.368L170.976 30.984L170.752 30.728C169.856 29.624 169.504 28.968 169.504 28.232C169.504 26.712 170.848 25.592 172.576 25.592C174.464 25.592 175.84 26.696 175.84 28.312C175.84 29.432 175.072 30.264 173.696 31.288L174.512 32.264L175.568 33.544C175.76 33.144 175.872 32.68 175.872 32.168H177.84C177.84 33.304 177.488 34.312 176.864 35.112L178.432 37H175.968L175.44 36.36C174.512 36.904 173.376 37.208 172.08 37.208ZM172.384 29.704L172.56 29.912C173.04 29.576 173.856 29.064 173.856 28.264C173.856 27.64 173.344 27.272 172.672 27.272C172.032 27.272 171.536 27.688 171.536 28.248C171.536 28.792 171.936 29.144 172.384 29.704ZM170.864 34.168C170.864 34.904 171.424 35.416 172.208 35.416C172.912 35.416 173.616 35.24 174.224 34.904L172.992 33.448L172.128 32.392L171.808 32.616C171.28 32.968 170.864 33.464 170.864 34.168ZM186.092 37.192C184.539 37.192 183.243 36.488 182.668 35.208L184.476 34.376C184.796 34.888 185.356 35.32 186.092 35.32C186.796 35.32 187.196 35.112 187.196 34.728C187.196 34.344 186.86 34.2 186.332 34.072L185.596 33.88C184.06 33.48 183.116 32.536 183.116 31.384C183.116 29.752 184.22 28.808 186.156 28.808C187.644 28.808 188.956 29.544 189.308 30.584L187.564 31.384C187.42 30.952 186.732 30.664 186.156 30.664C185.58 30.664 185.26 30.936 185.26 31.352C185.26 31.624 185.564 31.8 186.124 31.928L187.164 32.184C188.716 32.568 189.324 33.768 189.324 34.76C189.324 36.216 187.948 37.192 186.092 37.192ZM194.313 37.192C191.865 37.192 190.121 35.464 190.121 33C190.121 30.536 191.849 28.808 194.281 28.808C196.745 28.808 198.457 30.536 198.457 33C198.457 35.464 196.745 37.192 194.313 37.192ZM194.313 35.24C195.481 35.24 196.297 34.312 196.297 33C196.297 31.688 195.465 30.76 194.281 30.76C193.113 30.76 192.281 31.688 192.281 33C192.281 34.312 193.113 35.24 194.313 35.24ZM200.65 37V30.696H199.322V29H200.65V28.2C200.65 26.488 201.514 25.496 203.306 25.496C203.93 25.496 204.682 25.736 205.242 26.04L204.458 27.56C204.122 27.384 203.834 27.304 203.61 27.304C203.034 27.304 202.762 27.672 202.762 28.552V29H204.73V30.696H202.762V37H200.65ZM209.427 37.192C207.651 37.192 206.739 36.296 206.739 34.664V30.792H205.443V29H206.739V26.504H208.851V29H210.851V30.792H208.851V34.2C208.851 34.904 209.139 35.24 209.731 35.24C209.939 35.24 210.195 35.144 210.483 34.952L211.219 36.536C210.691 36.92 210.035 37.192 209.427 37.192ZM215.56 37.192C214.008 37.192 212.712 36.488 212.136 35.208L213.944 34.376C214.264 34.888 214.824 35.32 215.56 35.32C216.264 35.32 216.664 35.112 216.664 34.728C216.664 34.344 216.328 34.2 215.8 34.072L215.064 33.88C213.528 33.48 212.584 32.536 212.584 31.384C212.584 29.752 213.688 28.808 215.624 28.808C217.112 28.808 218.424 29.544 218.776 30.584L217.032 31.384C216.888 30.952 216.2 30.664 215.624 30.664C215.048 30.664 214.728 30.936 214.728 31.352C214.728 31.624 215.032 31.8 215.592 31.928L216.632 32.184C218.184 32.568 218.792 33.768 218.792 34.76C218.792 36.216 217.416 37.192 215.56 37.192Z" fill="#0D392A"/>
<path d="M26.776 40.288C22.696 40.288 19.84 36.688 19.84 31.6C19.84 26.512 22.696 22.912 26.752 22.912C30.832 22.912 33.712 26.512 33.712 31.6C33.712 36.688 30.832 40.288 26.776 40.288ZM26.776 37.312C28.96 37.312 30.52 34.96 30.52 31.6C30.52 28.24 28.936 25.864 26.752 25.864C24.592 25.864 23.056 28.24 23.056 31.6C23.056 34.96 24.592 37.312 26.776 37.312ZM35.7865 40V37.576C35.7865 36.16 37.1545 34.24 39.2185 32.8L41.7625 30.976C42.7705 30.28 43.8265 29.152 43.8265 28.12C43.8265 26.872 42.9145 25.912 41.2345 25.912C39.7705 25.912 38.8105 26.896 38.5225 28L35.1385 27.424C35.6185 25.048 37.8745 22.888 41.1625 22.888C44.8825 22.888 47.1865 25.048 47.1865 28.096C47.1865 30.184 45.9625 31.72 43.9945 33.136L41.7145 34.792C40.7785 35.44 40.1065 36.208 39.7465 37.12H47.4025V40H35.7865Z" fill="#0D392A"/>
</svg>
